<?xml version="1.0" encoding="utf-8"?>
<!-- Generator: Adobe Illustrator 17.0.0, SVG Export Plug-In . SVG Version: 6.00 Build 0)  -->
<!DOCTYPE svg PUBLIC "-//W3C//DTD SVG 1.1//EN" "http://www.w3.org/Graphics/SVG/1.1/DTD/svg11.dtd">
<svg version="1.1" id="图层_1" xmlns="http://www.w3.org/2000/svg" xmlns:xlink="http://www.w3.org/1999/xlink" x="0px" y="0px"
	viewBox="-650 -250 1920 600" >
<g>
	<g>
		<path style="fill:#60B17C;" d="M0.285-137.776c40.215,0.925,73.65,14.713,100.311,41.369
			c26.655,26.661,40.444,60.096,41.369,100.311c-0.553,31.731-9.685,59.588-27.395,83.568s-40.864,40.955-69.457,50.917
			c-3.506,0.552-5.997,0.043-7.471-1.522c-1.479-1.57-2.214-3.368-2.214-5.397l0.277-39.017c0-6.641-0.968-12.129-2.906-16.465
			c-1.937-4.332-4.198-7.61-6.779-9.822c16.417-1.108,31.131-6.408,44.137-15.911c13.006-9.5,19.877-27.534,20.615-54.099
			c0-7.562-1.293-14.527-3.874-20.891c-2.586-6.365-6.183-12.038-10.792-17.019c1.107-1.841,2.028-6.087,2.768-12.729
			c0.735-6.641-0.648-14.943-4.151-24.904c0-0.554-3.139-0.416-9.408,0.414c-6.274,0.83-16.145,5.583-29.609,14.251
			c-11.441-3.135-23.201-4.705-35.282-4.705c-12.084,0-23.936,1.57-35.558,4.705c-13.469-8.668-23.34-13.421-29.609-14.251
			c-6.274-0.83-9.408-0.968-9.408-0.414c-3.506,9.961-4.891,18.262-4.151,24.904c0.735,6.641,1.66,10.888,2.767,12.729
			c-4.613,4.8-8.21,10.378-10.791,16.742c-2.586,6.365-3.875,13.421-3.875,21.169c0.736,26.385,7.563,44.371,20.477,53.961
			c12.911,9.594,27.577,14.942,43.998,16.05c-2.033,1.66-3.874,4.059-5.534,7.194c-1.66,3.14-2.863,7.013-3.598,11.622
			c-4.799,2.586-11.254,3.692-19.37,3.321c-8.12-0.367-15.405-5.44-21.861-15.219c-2.953-4.981-6.322-8.578-10.1-10.792
			c-3.783-2.214-7.705-3.502-11.761-3.875c-3.506-0.367-5.672,0.187-6.503,1.66c-0.83,1.479,0.968,3.694,5.395,6.641
			c4.428,2.954,7.791,6.227,10.1,9.824c2.305,3.597,4.195,7.333,5.673,11.207c2.214,5.903,7.195,10.835,14.943,14.805
			c7.748,3.965,18.721,4.565,32.929,1.798l0.277,26.288c0,2.029-0.74,3.827-2.214,5.397c-1.479,1.565-3.969,2.075-7.472,1.522
			c-28.597-9.962-51.746-26.937-69.456-50.917s-26.842-51.838-27.395-83.568c0.921-40.215,14.709-73.651,41.369-100.311
			c26.656-26.656,60.092-40.444,100.311-41.369L0.285-137.776z"/>
	</g>
	<defs>
	<g id="github">
		<path style="fill:#60B17C;" d="M0.285-137.776c40.215,0.925,73.65,14.713,100.311,41.369
			c26.655,26.661,40.444,60.096,41.369,100.311c-0.553,31.731-9.685,59.588-27.395,83.568s-40.864,40.955-69.457,50.917
			c-3.506,0.552-5.997,0.043-7.471-1.522c-1.479-1.57-2.214-3.368-2.214-5.397l0.277-39.017c0-6.641-0.968-12.129-2.906-16.465
			c-1.937-4.332-4.198-7.61-6.779-9.822c16.417-1.108,31.131-6.408,44.137-15.911c13.006-9.5,19.877-27.534,20.615-54.099
			c0-7.562-1.293-14.527-3.874-20.891c-2.586-6.365-6.183-12.038-10.792-17.019c1.107-1.841,2.028-6.087,2.768-12.729
			c0.735-6.641-0.648-14.943-4.151-24.904c0-0.554-3.139-0.416-9.408,0.414c-6.274,0.83-16.145,5.583-29.609,14.251
			c-11.441-3.135-23.201-4.705-35.282-4.705c-12.084,0-23.936,1.57-35.558,4.705c-13.469-8.668-23.34-13.421-29.609-14.251
			c-6.274-0.83-9.408-0.968-9.408-0.414c-3.506,9.961-4.891,18.262-4.151,24.904c0.735,6.641,1.66,10.888,2.767,12.729
			c-4.613,4.8-8.21,10.378-10.791,16.742c-2.586,6.365-3.875,13.421-3.875,21.169c0.736,26.385,7.563,44.371,20.477,53.961
			c12.911,9.594,27.577,14.942,43.998,16.05c-2.033,1.66-3.874,4.059-5.534,7.194c-1.66,3.14-2.863,7.013-3.598,11.622
			c-4.799,2.586-11.254,3.692-19.37,3.321c-8.12-0.367-15.405-5.44-21.861-15.219c-2.953-4.981-6.322-8.578-10.1-10.792
			c-3.783-2.214-7.705-3.502-11.761-3.875c-3.506-0.367-5.672,0.187-6.503,1.66c-0.83,1.479,0.968,3.694,5.395,6.641
			c4.428,2.954,7.791,6.227,10.1,9.824c2.305,3.597,4.195,7.333,5.673,11.207c2.214,5.903,7.195,10.835,14.943,14.805
			c7.748,3.965,18.721,4.565,32.929,1.798l0.277,26.288c0,2.029-0.74,3.827-2.214,5.397c-1.479,1.565-3.969,2.075-7.472,1.522
			c-28.597-9.962-51.746-26.937-69.456-50.917s-26.842-51.838-27.395-83.568c0.921-40.215,14.709-73.651,41.369-100.311
			c26.656-26.656,60.092-40.444,100.311-41.369L0.285-137.776z"/>
	</g>
	</defs>
	<use x="0" y="0" xlink:href="#github">
		<animateTransform attributeName="transform"
			attributeType="XML"
			type="scale"
			values="1; 1.06; 1"
			keyTimes="0; 0.138; 1"
			dur="1s"
			additive="sum"  
			repeatCount="indefinite"/>
		<animate attributeName="opacity"
		   values="0; 0.6; 0"
		   dur="1s"
		   keyTimes="0; 0.138; 1"
		   repeatCount="indefinite"/>
	</use>
	<use x="0" y="0" xlink:href="#github">
		<animateTransform attributeName="transform"
			attributeType="XML"
			type="scale"
			values="1; 0.9; 1"
			keyTimes="0; 0.138; 1"
			dur="1s"
			additive="sum"  
			repeatCount="indefinite"/>
		<animate attributeName="opacity"
		   values="0; 0.8; 0"
		   dur="1s"
		   keyTimes="0; 0.138; 1"
		   repeatCount="indefinite"/>
	</use>
	<g>
		<path style="fill:#60B17C;" d="M239.768,73.714V57.033l60.227-0.097v52.76c-9.247,7.37-18.783,12.915-28.61,16.632
			c-9.829,3.718-19.915,5.576-30.259,5.576c-13.966,0-26.655-2.989-38.067-8.97c-11.412-5.979-20.027-14.629-25.847-25.943
			c-5.818-11.315-8.728-23.956-8.728-37.921c0-13.835,2.893-26.751,8.68-38.745c5.786-11.992,14.111-20.9,24.974-26.72
			c10.862-5.819,23.373-8.729,37.533-8.729c10.28,0,19.574,1.667,27.883,4.995c8.307,3.33,14.822,7.97,19.542,13.918
			c4.719,5.949,8.307,13.708,10.765,23.275L280.89,31.72c-2.133-7.24-4.786-12.93-7.953-17.069
			c-3.169-4.138-7.695-7.451-13.578-9.941c-5.884-2.487-12.414-3.733-19.591-3.733c-8.599,0-16.036,1.31-22.306,3.927
			c-6.272,2.619-11.332,6.062-15.178,10.329c-3.848,4.268-6.837,8.956-8.972,14.064c-3.621,8.794-5.431,18.329-5.431,28.61
			c0,12.673,2.183,23.277,6.547,31.81c4.364,8.535,10.716,14.873,19.057,19.01c8.341,4.138,17.199,6.206,26.574,6.206
			c8.146,0,16.1-1.567,23.858-4.703c7.759-3.135,13.642-6.481,17.652-10.038V73.714H239.768z"/>
		<path style="fill:#60B17C;" d="M325.6,7.376v-20.075h17.457V7.376H325.6z M325.6,129.48V26.483h17.457V129.48H325.6z"/>
		<path style="fill:#60B17C;" d="M407.746,113.866l2.521,15.421c-4.914,1.033-9.31,1.551-13.19,1.551
			c-6.337,0-11.25-1.003-14.742-3.006s-5.949-4.638-7.371-7.903c-1.423-3.265-2.134-10.135-2.134-20.61V40.061h-12.802V26.483
			h12.802V0.976l17.361-10.475v35.982h17.554v13.578h-17.554v60.227c0,4.979,0.306,8.181,0.921,9.602
			c0.613,1.422,1.615,2.556,3.006,3.394c1.39,0.841,3.378,1.262,5.964,1.262C402.024,114.545,404.577,114.32,407.746,113.866z"/>
		<path style="fill:#60B17C;" d="M427.627,129.48V-12.699h18.815v58.384h73.902v-58.384h18.815V129.48h-18.815V62.465h-73.902
			v67.016H427.627z"/>
		<path style="fill:#60B17C;" d="M635.755,129.48v-15.129c-8.016,11.637-18.911,17.456-32.683,17.456
			c-6.076,0-11.753-1.164-17.019-3.491c-5.272-2.329-9.183-5.252-11.736-8.778c-2.555-3.522-4.349-7.838-5.383-12.946
			c-0.712-3.427-1.067-8.857-1.067-16.294V26.483h17.457v57.123c0,9.116,0.354,15.261,1.068,18.427
			c1.098,4.592,3.425,8.195,6.981,10.814c3.556,2.618,7.953,3.927,13.191,3.927c5.238,0,10.149-1.341,14.743-4.025
			c4.587-2.681,7.838-6.335,9.746-10.959c1.905-4.622,2.86-11.33,2.86-20.124V26.483h17.457V129.48H635.755z"/>
		<path style="fill:#60B17C;" d="M694.819,129.48h-16.197V-12.699h17.458v50.723c7.372-9.246,16.778-13.87,28.223-13.87
			c6.335,0,12.332,1.278,17.991,3.832c5.657,2.554,10.311,6.143,13.965,10.765c3.652,4.624,6.513,10.2,8.583,16.729
			c2.068,6.532,3.103,13.515,3.103,20.95c0,17.651-4.364,31.294-13.092,40.928c-8.729,9.634-19.204,14.449-31.423,14.449
			c-12.156,0-21.693-5.075-28.61-15.226V129.48z M694.625,77.206c0,12.349,1.679,21.272,5.043,26.767
			c5.494,8.987,12.93,13.481,22.307,13.481c7.627,0,14.223-3.313,19.785-9.941c5.559-6.627,8.34-16.502,8.34-29.629
			c0-13.446-2.667-23.373-8-29.774c-5.335-6.402-11.784-9.602-19.35-9.602c-7.629,0-14.224,3.314-19.785,9.941
			C697.403,55.079,694.625,64.663,694.625,77.206z"/>
	</g>
</g>
<g>
	<path d="M392.165-41.932l28.547-74.334h10.597l30.424,74.334h-11.207l-8.67-22.512h-31.083l-8.163,22.512H392.165z M413.613-72.457
		h25.201l-7.758-20.586c-2.366-6.254-4.125-11.391-5.273-15.415c-0.947,4.766-2.282,9.499-4.006,14.198L413.613-72.457z"/>
	<path d="M468.224-41.932v-74.334h9.126v74.334H468.224z"/>
	<path d="M528.361-59.273l9.43,1.166c-1.487,5.51-4.242,9.786-8.265,12.829s-9.16,4.564-15.415,4.564
		c-7.876,0-14.121-2.426-18.735-7.277c-4.615-4.851-6.922-11.653-6.922-20.409c0-9.059,2.333-16.09,6.998-21.094
		c4.665-5.002,10.716-7.504,18.153-7.504c7.201,0,13.082,2.451,17.646,7.352c4.564,4.902,6.846,11.798,6.846,20.689
		c0,0.541-0.018,1.353-0.051,2.434h-40.16c0.338,5.915,2.012,10.445,5.02,13.589s6.76,4.716,11.256,4.716
		c3.348,0,6.204-0.878,8.57-2.637C525.098-52.613,526.974-55.42,528.361-59.273z M498.393-74.029h30.069
		c-0.405-4.529-1.556-7.926-3.448-10.192c-2.908-3.515-6.677-5.273-11.308-5.273c-4.192,0-7.716,1.404-10.572,4.209
		C500.278-82.48,498.697-78.727,498.393-74.029z"/>
	<path d="M586.114-59.273l9.43,1.166c-1.487,5.51-4.242,9.786-8.265,12.829s-9.16,4.564-15.415,4.564
		c-7.876,0-14.121-2.426-18.735-7.277c-4.615-4.851-6.922-11.653-6.922-20.409c0-9.059,2.333-16.09,6.998-21.094
		c4.665-5.002,10.716-7.504,18.153-7.504c7.201,0,13.082,2.451,17.646,7.352c4.564,4.902,6.846,11.798,6.846,20.689
		c0,0.541-0.018,1.353-0.051,2.434h-40.16c0.338,5.915,2.012,10.445,5.02,13.589s6.76,4.716,11.256,4.716
		c3.348,0,6.204-0.878,8.57-2.637C582.851-52.613,584.728-55.42,586.114-59.273z M556.147-74.029h30.069
		c-0.405-4.529-1.555-7.926-3.448-10.192c-2.908-3.515-6.677-5.273-11.308-5.273c-4.192,0-7.716,1.404-10.572,4.209
		C558.032-82.48,556.451-78.727,556.147-74.029z"/>
	<path d="M607.005-41.932v-53.85h8.214v7.657c3.954-5.915,9.667-8.873,17.138-8.873c3.246,0,6.229,0.583,8.95,1.749
		s4.758,2.696,6.109,4.588c1.351,1.894,2.299,4.142,2.839,6.744c0.338,1.691,0.508,4.648,0.508,8.873v33.111h-9.128v-32.756
		c0-3.719-0.355-6.499-1.064-8.341c-0.711-1.842-1.971-3.312-3.778-4.411c-1.809-1.098-3.929-1.648-6.363-1.648
		c-3.888,0-7.243,1.234-10.065,3.701c-2.823,2.468-4.234,7.15-4.234,14.046v29.409H607.005z"/>
	<path d="M691.48-41.932V-59.73h-32.248v-8.366l33.922-48.17h7.452v48.17h10.04v8.366h-10.04v17.798H691.48z M691.48-68.096v-33.517
		l-23.274,33.517H691.48z"/>
	<path d="M767.944-50.704v8.772h-49.134c-0.068-2.196,0.287-4.309,1.066-6.338c1.25-3.346,3.253-6.643,6.008-9.888
		c2.755-3.245,6.735-6.998,11.942-11.256c8.078-6.626,13.538-11.874,16.378-15.745c2.839-3.871,4.26-7.53,4.26-10.978
		c0-3.616-1.294-6.668-3.88-9.152s-5.957-3.727-10.116-3.727c-4.395,0-7.91,1.318-10.547,3.955
		c-2.637,2.637-3.973,6.288-4.006,10.953l-9.38-0.964c0.642-6.997,3.059-12.33,7.251-15.997c4.191-3.668,9.819-5.502,16.884-5.502
		c7.133,0,12.778,1.978,16.936,5.933c4.157,3.955,6.236,8.857,6.236,14.704c0,2.975-0.608,5.9-1.826,8.772
		c-1.216,2.874-3.236,5.899-6.059,9.076c-2.823,3.178-7.513,7.538-14.07,13.082c-5.476,4.598-8.993,7.717-10.547,9.356
		c-1.556,1.64-2.841,3.288-3.854,4.944H767.944z"/>
</g>
</svg>
