<?xml version="1.0" encoding="utf-8"?>
<!-- Generator: Adobe Illustrator 17.0.0, SVG Export Plug-In . SVG Version: 6.00 Build 0)  -->
<!DOCTYPE svg PUBLIC "-//W3C//DTD SVG 1.1//EN" "http://www.w3.org/Graphics/SVG/1.1/DTD/svg11.dtd">
<svg version="1.1" id="图层_1" xmlns="http://www.w3.org/2000/svg" xmlns:xlink="http://www.w3.org/1999/xlink" viewBox="-800 -250 1920 600">
	
<defs>
	<path id="A" style="fill:#60B17C;" d="M-97.688,101.324l79.119-206.02h29.371l84.319,206.02H64.064L40.033,38.927h-86.146l-22.625,62.396
		H-97.688z M-38.243,16.723h69.844L10.1-40.333C3.541-57.664-1.332-71.904-4.515-83.054c-2.624,13.21-6.324,26.328-11.102,39.349
		L-38.243,16.723z"/>
</defs>

<!--up-->
<use x="0" y="0" opacity="0" xlink:href="#A" >
    <animateTransform attributeName="transform"
        attributeType="XML"
        type="scale"
        values="1; 4; 20"
		keyTimes="0; 0.138; 1"
        dur="5.8s"
        additive="sum"  
        repeatCount="indefinite"/>
    <animate attributeName="opacity"
       values="1; 1; 0"
       dur="5.8s"
	   keyTimes="0; 0.138; 1"
       repeatCount="indefinite"/>
</use>

<use x="0" y="0" opacity="0" xlink:href="#A" >
    <animateTransform attributeName="transform"
        attributeType="XML"
        type="scale"
        values="1; 4; 20"
		keyTimes="0; 0.05; 1"
		begin="2.5s"
        dur="10s"
        additive="sum"  
        repeatCount="indefinite"/>
    <animate attributeName="opacity"
       values="1; 1; 0"
       dur="10s"
	   begin="2.5s"
	   keyTimes="0; 0.05; 1"
       repeatCount="indefinite"/>
</use>

<use x="0" y="0" opacity="0" xlink:href="#A" >
    <animateTransform attributeName="transform"
        attributeType="XML"
        type="scale"
        values="1; 4; 20"
		keyTimes="0; 0.05; 1"
		begin="3.6s"
        dur="10s"
        additive="sum"  
        repeatCount="indefinite"/>
    <animate attributeName="opacity"
       values="1; 0.8; 0"
       dur="10s"
	   begin="3.6s"
	   keyTimes="0; 0.05; 1"
       repeatCount="indefinite"/>
</use>
<!--up-->
<!--down-->
<use x="0" y="0" opacity="0" xlink:href="#A">
    <animateTransform attributeName="transform"
        attributeType="XML"
        type="scale"
        values="10; 4; 1"
		keyTimes="0; 0.138; 1"
        dur="5.8s"
        additive="sum"
        repeatCount="indefinite"/>
    <animate attributeName="opacity"
       values="1; 0.5; 0"
	   keyTimes="0; 0.138; 1"
       dur="5.8s"
       repeatCount="indefinite"/>
</use>

<!--down-->

<g>
	<path style="fill:#60B17C;" d="M-97.688,101.324l79.119-206.02h29.371l84.319,206.02H64.064L40.033,38.927h-86.146l-22.625,62.396
		H-97.688z M-38.243,16.723h69.844L10.1-40.333C3.541-57.664-1.332-71.904-4.515-83.054c-2.624,13.21-6.324,26.328-11.102,39.349
		L-38.243,16.723z"/>
	<!--<path style="fill:#000;" d="M113.109,101.324v-206.02h25.295v206.02H113.109z"/>
	<path style="fill:#000;" d="M279.779,53.261l26.139,3.232c-4.123,15.271-11.758,27.123-22.906,35.555
		c-11.15,8.432-25.391,12.647-42.722,12.647c-21.83,0-39.138-6.722-51.926-20.166c-12.789-13.442-19.183-32.298-19.183-56.563
		c0-25.107,6.464-44.595,19.393-58.461c12.929-13.865,29.698-20.799,50.31-20.799c19.955,0,36.258,6.794,48.904,20.377
		c12.648,13.585,18.973,32.698,18.973,57.336c0,1.5-0.049,3.748-0.141,6.746H195.32c0.936,16.396,5.573,28.949,13.913,37.662
		c8.337,8.713,18.737,13.07,31.198,13.07c9.274,0,17.19-2.436,23.749-7.309C270.736,71.719,275.937,63.942,279.779,53.261z
		 M196.725,12.367h83.335c-1.125-12.553-4.311-21.969-9.557-28.247c-8.059-9.743-18.504-14.615-31.338-14.615
		c-11.618,0-21.385,3.889-29.301,11.664C201.947-11.054,197.569-0.654,196.725,12.367z"/>
	<path style="fill:#000;" d="M439.844,53.261l26.14,3.232c-4.124,15.271-11.759,27.123-22.907,35.555
		c-11.15,8.432-25.39,12.647-42.722,12.647c-21.83,0-39.138-6.722-51.926-20.166c-12.789-13.442-19.183-32.298-19.183-56.563
		c0-25.107,6.464-44.595,19.394-58.461c12.929-13.865,29.698-20.799,50.31-20.799c19.956,0,36.258,6.794,48.905,20.377
		c12.647,13.585,18.972,32.698,18.972,57.336c0,1.5-0.048,3.748-0.141,6.746H355.385c0.936,16.396,5.573,28.949,13.913,37.662
		c8.337,8.713,18.736,13.07,31.197,13.07c9.275,0,17.191-2.436,23.75-7.309C430.802,71.719,436.003,63.942,439.844,53.261z
		 M356.791,12.367h83.335c-1.124-12.553-4.311-21.969-9.556-28.247c-8.059-9.743-18.504-14.615-31.339-14.615
		c-11.618,0-21.385,3.889-29.301,11.664C362.012-11.054,357.633-0.654,356.791,12.367z"/>
	<path style="fill:#000;" d="M497.744,101.324V-47.921h22.767v21.22c10.961-16.394,26.793-24.593,47.499-24.593
		c8.994,0,17.262,1.616,24.804,4.848c7.541,3.232,13.187,7.473,16.935,12.718c3.746,5.248,6.37,11.478,7.869,18.691
		c0.936,4.686,1.405,12.882,1.405,24.593v91.768h-25.295V10.541c0-10.306-0.984-18.011-2.951-23.118
		c-1.968-5.105-5.459-9.181-10.47-12.226c-5.013-3.043-10.892-4.567-17.637-4.567c-10.775,0-20.074,3.421-27.896,10.259
		c-7.824,6.84-11.734,19.815-11.734,38.927v81.509H497.744z"/>-->
</g>
</svg>
