<?xml version="1.0" encoding="utf-8"?>
<!-- Generator: Adobe Illustrator 17.0.0, SVG Export Plug-In . SVG Version: 6.00 Build 0)  -->
<!DOCTYPE svg PUBLIC "-//W3C//DTD SVG 1.1//EN" "http://www.w3.org/Graphics/SVG/1.1/DTD/svg11.dtd">
<svg version="1.1" id="图层_1" xmlns="http://www.w3.org/2000/svg" xmlns:xlink="http://www.w3.org/1999/xlink" x="0px" y="0px"
	 width="50px" height="50px" viewBox="0 0 50 50" style="enable-background:new 0 0 50 50;" xml:space="preserve">
<path style="fill-rule:evenodd;clip-rule:evenodd;" d="M23.202,29.058c0.667-0.086,1.145,0.294,1.714,0.038
	c0.143-0.064,0.258-0.282,0.415-0.373c0.304-0.177,0.708-0.066,1.028-0.231c0.327-0.168,0.393-0.429,0.595-0.691
	c0.329-0.426,0.865-0.588,1.075-1.004c0.117-0.232,0.119-0.529,0.229-0.757c0.154-0.318,0.447-0.459,0.582-0.824
	c-0.22-0.974,0.288-1.239,0.488-1.817c0.065-0.186,0.033-0.363,0.161-0.517c-0.168-0.152-0.13-0.564-0.26-0.844
	c0.055-0.327,0.384-0.618,0.325-1c-0.032-0.205-0.204-0.382-0.265-0.576c-0.196-0.633,0.255-1.376-0.128-1.993
	c-0.182-0.115-0.394-0.19-0.543-0.35c-0.254-0.393-0.017-1.037-0.144-1.524c-0.103-0.395-0.353-0.528-0.584-0.78
	c0.133-0.028,0.255-0.194,0.213-0.288c-0.051-0.105-0.183-0.101-0.283-0.14c-0.001-0.118,0.074-0.089,0.011-0.201
	c-0.162-0.081-0.231-0.285-0.261-0.543c-0.138-0.123-0.109-0.247-0.186-0.383c-0.259-0.461-0.788-0.626-0.717-1.236
	c-0.22-0.338-0.455-0.655-0.719-0.935c-0.197-0.493-0.304-1.108-0.697-1.338c-0.264,0.189-0.31,0.581-0.391,0.939
	c-0.47,0.524-0.669,1.298-1.313,1.661c-0.321,0.445-0.572,1.029-0.692,1.569c-0.334,0.337-0.541,0.952-0.681,1.368
	c0.116,0.014,0.003-0.104,0.139-0.113c-0.055,0.334-0.229,0.714-0.499,0.749c0.095,0.145-0.042,0.21-0.124,0.279
	c0.098,0.007-0.026,0.184-0.094,0.276c-0.013,0.421,0.062,0.874-0.089,1.278c-0.062,0.166-0.209,0.261-0.26,0.426
	c-0.047,0.154-0.119,0.412-0.129,0.547c-0.003,0.041,0.074,0.136,0.075,0.16c0.03,0.644-0.345,0.915-0.493,1.45
	c0.15,0.74-0.296,1.378-0.16,2.12c0.02,0.11,0.09,0.211,0.091,0.326c0.001,0.198-0.136,0.355-0.161,0.517
	c-0.036,0.231-0.046,0.579-0.014,0.804c0.174,1.21,0.96,1.952,1.442,2.871c0.318,0.065,0.59,0.377,0.604,0.739
	C22.503,28.717,23.063,28.668,23.202,29.058z"/>
</svg>
