<?xml version="1.0" encoding="utf-8"?>
<!-- Generator: Adobe Illustrator 17.0.0, SVG Export Plug-In . SVG Version: 6.00 Build 0)  -->
<!DOCTYPE svg PUBLIC "-//W3C//DTD SVG 1.1//EN" "http://www.w3.org/Graphics/SVG/1.1/DTD/svg11.dtd">
<svg version="1.1" id="图层_1" xmlns="http://www.w3.org/2000/svg" xmlns:xlink="http://www.w3.org/1999/xlink" x="0px" y="0px"
	 width="50px" height="50px" viewBox="0 0 50 50" style="enable-background:new 0 0 50 50;" xml:space="preserve">
<path style="fill-rule:evenodd;clip-rule:evenodd;" d="M6.171,38.984c0.681-0.816,1.797-1.266,2.718-1.776
	c0.957-0.53,1.907-1.086,2.891-1.226c0.329-0.305,0.676-0.434,1.026-0.531c-0.687-0.509-1.302-0.515-1.618-1.279
	c0.727-0.756,1.723-0.042,2.611-0.105c0.764-0.054,1.268-0.505,2.089-0.724c0.105-0.356,0.392-0.736,0.23-1.058
	c-2.32-0.748-4.736-1.087-6.882-3.064c0.314-0.442,0.657-0.608,0.99-0.869c-2.637-2.3-4.559-5.165-4.612-7.983
	c0.79,0.123,1.951,0.956,2.894,0.945c0.949,0.637,2.346,1.028,3.465,1.5c0.525,0.468,1.023,0.685,1.508,0.779
	c0.278-0.801-0.463-1.765,0.311-2.44c1.027,1.495,3.017,2.299,4.447,2.689c0.36-0.003,0.691-0.286,1.051-0.306
	c2.506-2.82,0.426-6.372,0.029-9.375c0.81-0.393,1.945-0.1,2.671,0.459c0.811-3.731,1.632-7.833,2.175-11.707
	c0.665,0.291,1.109,1.117,1.391,1.823c1.07,2.68,1.34,5.714,1.637,8.42c0.541-0.087,1.049-0.5,1.601-0.49
	c0.388,0.659,0.281,1.581,0.189,2.319c-0.284,2.289-0.602,4.694-0.792,7.016c1.414-1.957,2.669-3.72,4.129-4.585
	c1.025,0.211,0.477,1.41,0.678,2.084c2.447-1.818,4.86-3.968,7.523-3.761c-0.081,2.116-3.421,4.903-4.739,6.891
	c0.679,0.319,1.572,0.39,1.719,1.152c-0.506,0.433-1.176,1.093-1.792,1.372c-0.174,0.079-0.383-0.032-0.563,0.072
	c-0.806,0.466-1.801,1.42-2.67,2.227c-1.003,0.931-2.134,1.991-2.663,3.368c0.109,0.101,0.175,0.206,0.149,0.324
	c1.82,0.826,4.039,1.219,6,1.748c0.703,0.19,2.717,0.414,2.59,1.841c-0.4-0.005-0.793,0.042-1.163,0.32
	c0.322,0.969,1.319,1.341,2.04,2.026c1.365,1.296,2.497,2.677,4.005,3.888c-0.59,0.462-1.458,0.118-2.111-0.016
	c-2.098-0.432-4.386-1.412-6.525-1.852c-0.092,0.602,0.222,1.152,0.13,1.755c-1.442,0.449-2.719-0.876-4.217-1.061
	c-1.671-0.957-3.782-2.669-5.213-4.534c-1.293,4.089-0.819,7.952-0.227,11.8c0.176,0.244,0.301,0.495,0.421,0.746
	c-1.767,0.969-1.86-1.801-2.085-2.991c-0.22-1.162-0.52-2.15-0.611-3.065c-0.238-2.368-0.009-4.42,0.015-6.288
	c-1.159,0.962-2.848,3.044-4.426,3.937c-0.39,0.221-0.866,0.296-1.252,0.56c-0.752,0.515-1.319,0.98-2.165,1.076
	c-0.181-0.082-0.303-0.162-0.611-0.379c0.168-0.631,0.458-1.278,0.596-1.905c-2.322,0.809-5.963,0.443-8.472,0.739
	C6.461,39.516,6.283,39.2,6.171,38.984z"/>
</svg>
