<?xml version="1.0" encoding="utf-8"?>
<!-- Generator: Adobe Illustrator 17.0.0, SVG Export Plug-In . SVG Version: 6.00 Build 0)  -->
<!DOCTYPE svg PUBLIC "-//W3C//DTD SVG 1.1//EN" "http://www.w3.org/Graphics/SVG/1.1/DTD/svg11.dtd">
<svg version="1.1" id="图层_1" xmlns="http://www.w3.org/2000/svg" xmlns:xlink="http://www.w3.org/1999/xlink" x="0px" y="0px"
	 width="50px" height="50px" viewBox="0 0 50 50" style="enable-background:new 0 0 50 50;" xml:space="preserve">
<path style="fill-rule:evenodd;clip-rule:evenodd;" d="M24.182,38.623c0.75-0.097,1.288,0.331,1.927,0.043
	c0.161-0.072,0.29-0.317,0.467-0.42c0.342-0.199,0.796-0.074,1.156-0.26c0.368-0.189,0.442-0.483,0.669-0.777
	c0.37-0.479,0.973-0.661,1.209-1.129c0.132-0.261,0.134-0.595,0.257-0.851c0.173-0.358,0.503-0.516,0.655-0.926
	c-0.247-1.095,0.324-1.393,0.549-2.044c0.073-0.209,0.037-0.408,0.181-0.581c-0.189-0.171-0.146-0.634-0.292-0.95
	c0.062-0.367,0.432-0.695,0.366-1.124c-0.036-0.231-0.229-0.429-0.297-0.648c-0.221-0.712,0.287-1.548-0.144-2.241
	c-0.205-0.129-0.443-0.213-0.611-0.393c-0.286-0.442-0.019-1.166-0.162-1.713c-0.116-0.444-0.397-0.593-0.657-0.877
	c0.15-0.032,0.287-0.218,0.239-0.323c-0.058-0.118-0.206-0.114-0.319-0.158c-0.001-0.133,0.084-0.1,0.012-0.227
	c-0.182-0.091-0.26-0.321-0.294-0.611c-0.156-0.138-0.123-0.277-0.209-0.431c-0.292-0.518-0.886-0.704-0.806-1.389
	c-0.248-0.38-0.512-0.737-0.808-1.051c-0.222-0.554-0.342-1.246-0.783-1.504c-0.297,0.213-0.348,0.653-0.44,1.056
	c-0.529,0.589-0.752,1.46-1.477,1.868c-0.36,0.501-0.643,1.157-0.778,1.765c-0.376,0.379-0.608,1.071-0.766,1.538
	c0.13,0.015,0.004-0.117,0.157-0.127c-0.062,0.375-0.257,0.802-0.562,0.842c0.106,0.163-0.047,0.236-0.139,0.314
	c0.111,0.008-0.029,0.207-0.106,0.311c-0.015,0.474,0.07,0.983-0.1,1.438c-0.07,0.186-0.235,0.293-0.292,0.479
	c-0.053,0.173-0.134,0.463-0.145,0.615c-0.003,0.046,0.083,0.153,0.085,0.18c0.034,0.724-0.388,1.028-0.554,1.631
	c0.169,0.832-0.333,1.55-0.179,2.384c0.023,0.124,0.102,0.237,0.102,0.366c0.001,0.223-0.153,0.4-0.181,0.581
	c-0.04,0.26-0.052,0.651-0.016,0.904c0.195,1.36,1.079,2.195,1.621,3.229c0.357,0.073,0.664,0.424,0.679,0.831
	C23.397,38.239,24.026,38.184,24.182,38.623z"/>
</svg>
