<?xml version="1.0" encoding="utf-8"?>
<!-- Generator: Adobe Illustrator 17.0.0, SVG Export Plug-In . SVG Version: 6.00 Build 0)  -->
<!DOCTYPE svg PUBLIC "-//W3C//DTD SVG 1.1//EN" "http://www.w3.org/Graphics/SVG/1.1/DTD/svg11.dtd">
<svg version="1.1" id="图层_1" xmlns="http://www.w3.org/2000/svg" xmlns:xlink="http://www.w3.org/1999/xlink" x="0px" y="0px"
	 width="50px" height="50px" viewBox="0 0 50 50" style="enable-background:new 0 0 50 50;" xml:space="preserve">
<path style="fill-rule:evenodd;clip-rule:evenodd;" d="M21.892,38.757c0.966-0.125,1.659,0.426,2.482,0.056
	c0.207-0.093,0.373-0.409,0.601-0.541c0.44-0.256,1.026-0.096,1.489-0.335c0.474-0.244,0.569-0.622,0.861-1.001
	c0.476-0.617,1.253-0.851,1.557-1.454c0.169-0.336,0.172-0.767,0.331-1.096c0.222-0.461,0.648-0.665,0.843-1.193
	c-0.318-1.411,0.417-1.794,0.707-2.632c0.094-0.27,0.047-0.526,0.234-0.748c-0.243-0.22-0.188-0.817-0.376-1.223
	c0.08-0.473,0.557-0.896,0.471-1.448c-0.046-0.297-0.296-0.553-0.383-0.835c-0.284-0.917,0.369-1.993-0.186-2.887
	c-0.264-0.166-0.571-0.275-0.787-0.507c-0.368-0.569-0.024-1.502-0.209-2.207c-0.15-0.572-0.512-0.764-0.846-1.13
	c0.193-0.041,0.37-0.281,0.308-0.416c-0.074-0.152-0.265-0.146-0.41-0.203c-0.001-0.171,0.108-0.129,0.016-0.292
	c-0.234-0.117-0.335-0.413-0.379-0.787c-0.201-0.178-0.158-0.357-0.27-0.555c-0.376-0.667-1.141-0.906-1.038-1.789
	c-0.319-0.489-0.659-0.949-1.041-1.354c-0.285-0.714-0.44-1.605-1.009-1.937c-0.383,0.274-0.449,0.842-0.567,1.36
	c-0.681,0.758-0.968,1.88-1.902,2.406c-0.464,0.645-0.829,1.49-1.002,2.273c-0.484,0.488-0.784,1.379-0.986,1.981
	c0.168,0.02,0.005-0.151,0.202-0.164c-0.08,0.484-0.331,1.034-0.723,1.085c0.137,0.21-0.061,0.304-0.179,0.404
	c0.143,0.01-0.038,0.267-0.136,0.4c-0.019,0.61,0.09,1.266-0.129,1.851c-0.09,0.24-0.303,0.378-0.376,0.616
	c-0.069,0.223-0.172,0.596-0.186,0.792c-0.004,0.059,0.107,0.198,0.109,0.232c0.044,0.932-0.499,1.325-0.714,2.1
	c0.218,1.072-0.429,1.996-0.231,3.071c0.029,0.159,0.131,0.305,0.132,0.472c0.001,0.287-0.198,0.515-0.234,0.748
	c-0.052,0.335-0.067,0.839-0.02,1.164c0.252,1.752,1.39,2.827,2.088,4.159c0.46,0.094,0.855,0.546,0.875,1.07
	C20.88,38.263,21.69,38.192,21.892,38.757z"/>
</svg>
